<svg xmlns="http://www.w3.org/2000/svg" width="200" height="200">
  <g>
    <circle id="circle" style="stroke: #888; fill: #f8f8f8;" cx="100" cy="100" r="100"></circle>
    <line id="hour0" x1="100" y1="10" x2="100" y2="0" style="stroke-width: 1px; stroke: #888;"></line>
    <line id="hour1" x1="145" y1="22.05771365940052" x2="150" y2="13.397459621556123" style="stroke-width: 1px; stroke: #888;"></line>
    <line id="hour2" x1="177.94228634059948" y1="55" x2="186.60254037844385" y2="50" style="stroke-width: 1px; stroke: #888;"></line>
    <line id="hour3" x1="190" y1="100" x2="200" y2="100" style="stroke-width: 1px; stroke: #888;"></line>
    <line id="hour4" x1="177.94228634059948" y1="145" x2="186.60254037844388" y2="150" style="stroke-width: 1px; stroke: #888;"></line>
    <line id="hour5" x1="145" y1="177.94228634059948" x2="150" y2="186.60254037844388" style="stroke-width: 1px; stroke: #888;"></line>
    <line id="hour6" x1="100" y1="190" x2="100" y2="200" style="stroke-width: 1px; stroke: #888;"></line>
    <line id="hour7" x1="54.99999999999998" y1="177.94228634059948" x2="49.99999999999998" y2="186.60254037844385" style="stroke-width: 1px; stroke: #888;"></line>
    <line id="hour8" x1="22.057713659400534" y1="145.00000000000003" x2="13.397459621556152" y2="150.00000000000003" style="stroke-width: 1px; stroke: #888;"></line>
    <line id="hour9" x1="10" y1="100.00000000000001" x2="0" y2="100.00000000000001" style="stroke-width: 1px; stroke: #888;"></line>
    <line id="hour10" x1="22.05771365940052" y1="54.99999999999999" x2="13.397459621556138" y2="49.999999999999986" style="stroke-width: 1px; stroke: #888;"></line>
    <line id="hour11" x1="54.99999999999996" y1="22.057713659400534" x2="49.99999999999996" y2="13.397459621556152" style="stroke-width: 1px; stroke: #888;"></line>

  
<!--     <text x="0" y="35" font-family="Verdana" font-size="35">
    Hello, out there
  </text> -->
    
    <text id="text-hour1" x="135" y="40" style="font-family: Roboto; font-size: 20px">1</text>    
    <text id="text-hour2" x="165" y="65" style="font-family: Roboto; font-size: 20px">2</text>
    <text id="text-hour3" x="177" y="107" style="font-family: Roboto; font-size: 20px">3</text>
    <text id="text-hour4" x="165" y="150" style="font-family: Roboto; font-size: 20px">4</text>
    <text id="text-hour5" x="135" y="175" style="font-family: Roboto; font-size: 20px">5</text>
    <text id="text-hour6" x="95" y="186" style="font-family: Roboto; font-size: 20px">6</text>
    <text id="text-hour7" x="53" y="175" style="font-family: Roboto; font-size: 20px">7</text>
    <text id="text-hour8" x="25" y="150" style="font-family: Roboto; font-size: 20px">8</text>
    <text id="text-hour9" x="13" y="107" style="font-family: Roboto;  font-size: 20px">9</text>
    <text id="text-hour10" x="25" y="65" style="font-family: Roboto; font-size: 20px">10</text>      
    <text id="text-hour11" x="50" y="40" style="font-family: Roboto; font-size: 20px">11</text>  
    <text id="text-hour0" x="90" y="27" style="font-family: Roboto; font-size: 20px">12</text>    

  </g>
</svg>